<?xml version="1.0" encoding="iso-8859-1"?>
<!-- Generator: Adobe Illustrator 19.0.0, SVG Export Plug-In . SVG Version: 6.00 Build 0)  -->
<!-- License: CC0. Made by SVG Repo: https://www.svgrepo.com/svg/184288/eraser -->
<svg version="1.1" id="Layer_1" xmlns="http://www.w3.org/2000/svg" xmlns:xlink="http://www.w3.org/1999/xlink" x="0px" y="0px"
     viewBox="0 0 512 512" style="enable-background:new 0 0 512 512;" xml:space="preserve">
<path style="fill:#A9A8AE;" d="M146.45,481.905c0.537,0.538,1.103,1.049,1.69,1.531c-0.582-0.479-1.147-0.99-1.686-1.528
	L146.45,481.905z"/>
    <path style="fill:#57575C;" d="M272.456,481.91c-4.361,4.361-10.276,6.814-16.446,6.817l232.717-0.002
	c12.851,0.002,23.273-10.418,23.271-23.271c0-12.854-10.42-23.273-23.271-23.273l-176.542-0.002l-23.273,23.273L272.456,481.91z"/>
    <path style="fill:#D6D5D8;" d="M505.183,216.271l-93.091-93.091L319.001,30.09c-5.112-5.112-12.01-7.35-18.686-6.71
	c-2.225,0.213-4.425,0.746-6.527,1.598c-0.7,0.284-1.39,0.604-2.065,0.959c-1.351,0.711-2.647,1.562-3.866,2.555
	c-0.61,0.496-1.199,1.03-1.767,1.598L118.528,197.653L6.819,309.362C2.451,313.726,0.002,319.644,0,325.817
	c0.002,6.172,2.453,12.091,6.817,16.455l93.091,93.092l46.542,46.541l0.003,0.003c0.54,0.54,1.105,1.05,1.686,1.528
	c0.141,0.116,0.295,0.214,0.438,0.326c0.458,0.357,0.914,0.711,1.393,1.033c0.133,0.088,0.278,0.164,0.414,0.253
	c0.507,0.323,1.015,0.641,1.544,0.923c0.098,0.051,0.202,0.095,0.299,0.146c0.576,0.296,1.162,0.582,1.763,0.832
	c0.064,0.028,0.135,0.048,0.2,0.074c0.635,0.258,1.28,0.493,1.938,0.694c0.073,0.025,0.152,0.037,0.227,0.059
	c0.65,0.191,1.308,0.362,1.975,0.496c0.188,0.036,0.383,0.053,0.571,0.087c0.559,0.098,1.12,0.194,1.686,0.251
	c0.763,0.076,1.538,0.116,2.321,0.116l93.091,0c0.005,0,0.008-0.002,0.011,0c6.17-0.003,12.085-2.456,16.446-6.817l16.457-16.457
	l23.273-23.273l25.434-25.435l167.563-167.562C514.273,240.096,514.273,225.358,505.183,216.271z"/>
    <path style="fill:#DD539C;" d="M505.183,216.271l-93.091-93.091L319.001,30.09c-9.089-9.089-23.823-9.089-32.912,0L118.528,197.653
	c-4.546,4.544-6.819,10.501-6.819,16.455c0,5.956,2.275,11.912,6.817,16.457l93.091,93.091l76.637,76.635l16.454,16.455
	c4.546,4.544,10.501,6.817,16.457,6.817c5.955,0,11.911-2.273,16.455-6.819l167.563-167.562
	C514.273,240.096,514.273,225.358,505.183,216.271z"/>
    <path style="fill:#C3C3C7;" d="M118.526,230.565c-4.543-4.544-6.817-10.501-6.817-16.457c0-5.955,2.273-11.911,6.819-16.455
	L6.819,309.362C2.451,313.726,0.002,319.645,0,325.817c0.002,6.172,2.453,12.091,6.817,16.455l93.091,93.092l111.709-111.709
	L118.526,230.565z"/>
    <path style="fill:#DB348A;" d="M118.526,230.565l93.091,93.091l200.475-200.475L319.001,30.09c-9.089-9.089-23.823-9.089-32.912,0
	L118.528,197.653c-4.546,4.544-6.819,10.501-6.819,16.455C111.709,220.065,113.983,226.021,118.526,230.565z"/>
</svg>
