<?xml version="1.0" encoding="iso-8859-1"?>
<!-- Generator: Adobe Illustrator 19.0.0, SVG Export Plug-In . SVG Version: 6.00 Build 0)  -->
<!-- License: CC0. Made by SVG Repo: https://www.svgrepo.com/svg/267957/dropper -->
<svg version="1.1" id="Layer_1" xmlns="http://www.w3.org/2000/svg" xmlns:xlink="http://www.w3.org/1999/xlink" x="0px" y="0px"
     viewBox="0 0 512 512" style="enable-background:new 0 0 512 512;" xml:space="preserve">
<path style="fill:#80CDD8;" d="M73.815,422.391c10.692,14.024,30.95,37.14,30.95,58.658c0,17.093-13.857,30.95-30.95,30.95
	s-30.95-13.857-30.95-30.95C42.866,459.532,63.125,436.416,73.815,422.391z"/>
    <path style="fill:#5293A9;" d="M73.815,422.391c10.692,14.024,30.95,37.14,30.95,58.658c0,17.093-13.857,30.95-30.95,30.95
	C73.815,491.155,73.815,443.237,73.815,422.391z"/>
    <polygon style="fill:#E9E9E9;" points="356.045,184.954 284.181,113.089 109.366,287.905 73.815,395.319 181.231,359.77 "/>
    <polygon style="fill:#D4D4D4;" points="356.045,184.954 320.113,149.022 73.815,395.319 181.231,359.77 "/>
    <path style="fill:#E68D2C;" d="M368.265,172.734l85.986-85.986c19.844-19.844,19.844-52.02,0-71.865l0,0
	c-19.844-19.844-52.02-19.844-71.865,0l-85.986,85.986L368.265,172.734z"/>
    <g>
	<path style="fill:#E06B34;" d="M368.265,172.734l85.986-85.986c19.844-19.844,19.844-52.02,0-71.865l0,0
		C429.575,39.56,332.333,136.802,332.333,136.802L368.265,172.734z"/>

        <rect x="238.954" y="120.892" transform="matrix(-0.7071 -0.7071 0.7071 -0.7071 448.4592 477.7066)" style="fill:#E06B34;" width="168.424" height="50.164"/>
</g>
    <rect x="310.834" y="150.666" transform="matrix(-0.7071 -0.7071 0.7071 -0.7071 478.2332 549.5869)" style="fill:#D1393C;" width="84.212" height="50.164"/>
    <polygon style="fill:#80CDD8;" points="127.735,269.535 109.366,287.905 73.815,395.319 181.231,359.77 271.464,269.535 "/>
    <polygon style="fill:#5293A9;" points="199.599,269.535 73.815,395.319 181.231,359.77 271.464,269.535 "/>
</svg>
