<?xml version="1.0" encoding="iso-8859-1"?>
<!-- Generator: Adobe Illustrator 19.0.0, SVG Export Plug-In . SVG Version: 6.00 Build 0)  -->
<!-- License: CC0. Made by SVG Repo: https://www.svgrepo.com/svg/200059/pencil -->
<svg version="1.1" id="Layer_1" xmlns="http://www.w3.org/2000/svg" xmlns:xlink="http://www.w3.org/1999/xlink" x="0px" y="0px"
     viewBox="0 0 512 512" style="enable-background:new 0 0 512 512;" xml:space="preserve">
<path style="fill:#EFC377;" d="M397.093,272.143l106.254-106.254c10.48-10.477,11.597-26.349,2.495-35.448L443.701,68.3
	L381.559,6.158c-9.101-9.101-24.973-7.982-35.448,2.493L239.857,114.905L6.828,347.935c-1.094,1.094-2.066,2.282-2.911,3.55
	c-1.69,2.534-2.866,5.374-3.464,8.361C0.155,361.339,0,362.867,0,364.413l0.003,55.312v68.969c0,2.414,0.367,4.743,1.049,6.932
	c1.136,3.649,3.143,6.912,5.778,9.548c4.218,4.215,10.044,6.825,16.477,6.825h68.967l55.312,0c6.182,0,12.111-2.458,16.48-6.825
	L397.093,272.143"/>
    <path style="fill:#FFB655;" d="M505.842,130.441L443.701,68.3L381.559,6.158c-9.101-9.101-24.973-7.982-35.448,2.493
	L239.857,114.905l32.955,32.955l45.661,45.664l45.666,45.663l32.955,32.955l106.254-106.254
	C513.827,155.412,514.944,139.54,505.842,130.441z"/>
    <polygon style="fill:#F4D944;" points="364.141,239.191 318.474,193.525 272.812,147.864 239.859,114.905 6.829,347.935
	85.444,426.554 164.065,505.175 397.093,272.143 "/>
    <path style="fill:#ECB555;" d="M0.003,488.693c0,6.439,2.611,12.262,6.826,16.478l78.615-78.616l-78.615-78.62
	c-4.372,4.372-6.826,10.295-6.828,16.478l0.003,55.312v68.967H0.003z"/>
    <polygon style="fill:#F1CC30;" points="318.474,193.525 272.812,147.864 239.859,114.905 6.829,347.935 85.444,426.554 "/>
    <path style="fill:#EE8700;" d="M318.474,193.525L443.701,68.3L381.559,6.158c-9.101-9.101-24.973-7.982-35.448,2.493
	L239.857,114.905l32.955,32.955L318.474,193.525z"/>
</svg>
